<svg width="30" height="28" viewBox="0 0 30 28" fill="none" xmlns="http://www.w3.org/2000/svg">
<path d="M29.7384 5.55664C29.6341 5.44016 29.5037 5.34648 29.3563 5.2822C29.209 5.21792 29.0483 5.18462 28.8857 5.18465H6.48261L5.80352 1.70316C5.71051 1.22531 5.44076 0.793083 5.0413 0.481837C4.64184 0.170592 4.13801 7.01928e-05 3.61765 0H1.11099C0.816335 0 0.533751 0.109248 0.325401 0.303709C0.11705 0.498171 0 0.761918 0 1.03693C0 1.31194 0.11705 1.57569 0.325401 1.77015C0.533751 1.96461 0.816335 2.07386 1.11099 2.07386H3.61071L7.16032 20.2577C7.26488 20.797 7.52022 21.3009 7.90051 21.7185C7.37564 22.176 6.99679 22.7604 6.80599 23.4066C6.61519 24.0529 6.61989 24.7358 6.81956 25.3797C7.01924 26.0236 7.40608 26.6034 7.93721 27.0546C8.46834 27.5058 9.12299 27.811 9.82857 27.9362C10.5342 28.0613 11.2631 28.0017 11.9346 27.7638C12.6061 27.5259 13.1938 27.1191 13.6327 26.5885C14.0716 26.0579 14.3445 25.4242 14.421 24.7577C14.4976 24.0911 14.3749 23.4178 14.0665 22.8124H20.3741C20.1256 23.2981 19.997 23.8296 19.9978 24.3678C19.9978 25.0856 20.2258 25.7873 20.6531 26.3841C21.0804 26.981 21.6877 27.4461 22.3982 27.7208C23.1087 27.9955 23.8906 28.0674 24.6448 27.9273C25.3991 27.7873 26.092 27.4417 26.6358 26.9341C27.1796 26.4265 27.5499 25.7799 27.7 25.0759C27.85 24.3719 27.773 23.6421 27.4787 22.979C27.1844 22.3158 26.686 21.749 26.0465 21.3502C25.4071 20.9514 24.6553 20.7386 23.8862 20.7386H10.4391C10.1789 20.7385 9.92703 20.6533 9.7273 20.4977C9.52757 20.342 9.39269 20.1259 9.34619 19.887L8.90596 17.6278H25.0153C25.7958 17.6277 26.5516 17.3719 27.1507 16.905C27.7499 16.4382 28.1546 15.7898 28.2941 15.0731L29.9828 6.40693C30.0114 6.25714 30.0043 6.10332 29.9621 5.95637C29.9198 5.80943 29.8434 5.67296 29.7384 5.55664ZM12.2209 24.3678C12.2209 24.6755 12.1231 24.9762 11.94 25.232C11.7569 25.4877 11.4966 25.6871 11.1921 25.8048C10.8876 25.9226 10.5525 25.9534 10.2293 25.8933C9.906 25.8333 9.60906 25.6852 9.376 25.4677C9.14294 25.2501 8.98422 24.973 8.91992 24.6713C8.85562 24.3696 8.88862 24.0568 9.01476 23.7726C9.14089 23.4884 9.35449 23.2455 9.62854 23.0746C9.90259 22.9037 10.2248 22.8124 10.5544 22.8124C10.9964 22.8124 11.4202 22.9763 11.7328 23.268C12.0453 23.5597 12.2209 23.9553 12.2209 24.3678ZM25.5527 24.3678C25.5527 24.6755 25.455 24.9762 25.2719 25.232C25.0888 25.4877 24.8285 25.6871 24.524 25.8048C24.2195 25.9226 23.8844 25.9534 23.5611 25.8933C23.2379 25.8333 22.9409 25.6852 22.7079 25.4677C22.4748 25.2501 22.3161 24.973 22.2518 24.6713C22.1875 24.3696 22.2205 24.0568 22.3466 23.7726C22.4727 23.4884 22.6863 23.2455 22.9604 23.0746C23.2344 22.9037 23.5566 22.8124 23.8862 22.8124C24.3282 22.8124 24.7521 22.9763 25.0646 23.268C25.3771 23.5597 25.5527 23.9553 25.5527 24.3678ZM26.1082 14.7024C26.0616 14.9419 25.9261 15.1586 25.7255 15.3143C25.5249 15.47 25.272 15.5548 25.0111 15.5539H8.50183L6.88674 7.2585H27.5539L26.1082 14.7024Z" fill="#2F3542"/>
</svg>
