<svg width="51" height="49" viewBox="0 0 51 49" fill="none" xmlns="http://www.w3.org/2000/svg">
<path d="M45.8242 11.373C45.6775 11.1975 45.4941 11.0564 45.2869 10.9595C45.0797 10.8626 44.8537 10.8125 44.625 10.8125H13.1172L12.1621 5.56641C12.0313 4.84636 11.6519 4.19506 11.0901 3.72606C10.5283 3.25706 9.81973 3.00011 9.08789 3H5.5625C5.1481 3 4.75067 3.16462 4.45765 3.45765C4.16462 3.75067 4 4.1481 4 4.5625C4 4.9769 4.16462 5.37433 4.45765 5.66735C4.75067 5.96038 5.1481 6.125 5.5625 6.125H9.07812L14.0703 33.5254C14.2174 34.338 14.5765 35.0973 15.1113 35.7266C14.3731 36.416 13.8403 37.2965 13.572 38.2703C13.3036 39.2441 13.3103 40.2732 13.5911 41.2435C13.8719 42.2138 14.416 43.0874 15.1629 43.7673C15.9099 44.4473 16.8306 44.9071 17.823 45.0957C18.8153 45.2843 19.8405 45.1944 20.7849 44.836C21.7292 44.4775 22.5559 43.8645 23.1731 43.065C23.7904 42.2654 24.1741 41.3105 24.2818 40.3062C24.3895 39.3018 24.2169 38.2873 23.7832 37.375H32.6543C32.3047 38.1068 32.1239 38.9077 32.125 39.7188C32.125 40.8004 32.4457 41.8577 33.0467 42.757C33.6476 43.6564 34.5017 44.3573 35.5009 44.7712C36.5002 45.1851 37.5998 45.2934 38.6606 45.0824C39.7215 44.8714 40.6959 44.3506 41.4607 43.5857C42.2256 42.8209 42.7464 41.8465 42.9574 40.7856C43.1684 39.7248 43.0601 38.6252 42.6462 37.6259C42.2323 36.6267 41.5314 35.7726 40.632 35.1716C39.7327 34.5707 38.6754 34.25 37.5938 34.25H18.6816C18.3157 34.2499 17.9614 34.1215 17.6805 33.887C17.3996 33.6525 17.2099 33.3268 17.1445 32.9668L16.5254 29.5625H39.1816C40.2794 29.5623 41.3423 29.1769 42.185 28.4734C43.0277 27.7699 43.5967 26.793 43.793 25.7129L46.168 12.6543C46.2082 12.4286 46.1982 12.1968 46.1388 11.9754C46.0794 11.754 45.972 11.5483 45.8242 11.373ZM21.1875 39.7188C21.1875 40.1823 21.05 40.6354 20.7925 41.0209C20.535 41.4063 20.1689 41.7067 19.7407 41.8841C19.3124 42.0615 18.8411 42.1079 18.3865 42.0175C17.9319 41.927 17.5142 41.7038 17.1865 41.376C16.8587 41.0483 16.6355 40.6306 16.545 40.176C16.4546 39.7213 16.501 39.2501 16.6784 38.8218C16.8558 38.3936 17.1562 38.0275 17.5416 37.77C17.9271 37.5125 18.3802 37.375 18.8438 37.375C19.4654 37.375 20.0615 37.6219 20.501 38.0615C20.9406 38.501 21.1875 39.0971 21.1875 39.7188ZM39.9375 39.7188C39.9375 40.1823 39.8 40.6354 39.5425 41.0209C39.285 41.4063 38.9189 41.7067 38.4907 41.8841C38.0624 42.0615 37.5912 42.1079 37.1365 42.0175C36.6819 41.927 36.2642 41.7038 35.9365 41.376C35.6087 41.0483 35.3855 40.6306 35.295 40.176C35.2046 39.7213 35.251 39.2501 35.4284 38.8218C35.6058 38.3936 35.9062 38.0275 36.2916 37.77C36.6771 37.5125 37.1302 37.375 37.5938 37.375C38.2154 37.375 38.8115 37.6219 39.251 38.0615C39.6906 38.501 39.9375 39.0971 39.9375 39.7188ZM40.7188 25.1543C40.6532 25.5153 40.4626 25.8417 40.1805 26.0764C39.8984 26.311 39.5427 26.4388 39.1758 26.4375H15.957L13.6855 13.9375H42.752L40.7188 25.1543Z" fill="#2F3542"/>
</svg>
