<svg width="32" height="27" viewBox="0 0 32 27" fill="none" xmlns="http://www.w3.org/2000/svg">
<path fill-rule="evenodd" clip-rule="evenodd" d="M6.36005 2.7028C3.94776 3.78656 2.18109 6.36585 2.18109 9.44128C2.18109 12.5825 3.48974 15.0045 5.36256 17.0805C6.90822 18.7905 8.77814 20.2088 10.6015 21.59C11.0348 21.9188 11.4652 22.2463 11.8884 22.5737C12.6532 23.167 13.3352 23.686 13.9938 24.0649C14.6511 24.4424 15.1804 24.6154 15.6311 24.6154C16.0819 24.6154 16.6111 24.4438 17.2684 24.0649C17.9271 23.686 18.609 23.167 19.3739 22.5737C19.7955 22.2448 20.2274 21.9188 20.6607 21.59C22.4841 20.2088 24.354 18.7905 25.8997 17.0805C27.7739 15.0045 29.0811 12.5825 29.0811 9.44128C29.0811 6.36728 27.3145 3.78656 24.9022 2.7028C22.5582 1.64906 19.4088 1.92786 16.4163 4.98613C16.3146 5.08991 16.1926 5.17246 16.0577 5.22885C15.9228 5.28523 15.7777 5.31429 15.6311 5.31429C15.4845 5.31429 15.3394 5.28523 15.2045 5.22885C15.0696 5.17246 14.9477 5.08991 14.8459 4.98613C11.8535 1.92786 8.70399 1.64906 6.36005 2.7028ZM15.6311 2.75427C12.2693 -0.205346 8.50478 -0.619978 5.45271 0.751167C2.23343 2.20238 0 5.56519 0 9.44271C0 13.253 1.614 16.1612 3.73256 18.506C5.42799 20.3833 7.50293 21.9546 9.3365 23.3415C9.75236 23.656 10.1551 23.962 10.5376 24.2594C11.2835 24.837 12.0832 25.4518 12.8931 25.9179C13.703 26.3826 14.6278 26.7615 15.6311 26.7615C16.6344 26.7615 17.5592 26.3826 18.3691 25.9179C19.1805 25.4518 19.9787 24.837 20.7247 24.2594C21.1229 23.9508 21.5233 23.6448 21.9257 23.3415C23.7578 21.9546 25.8342 20.3818 27.5297 18.506C29.6482 16.1612 31.2622 13.253 31.2622 9.44271C31.2622 5.56519 29.0302 2.20238 25.8095 0.754026C22.7574 -0.618548 18.9929 -0.203917 15.6311 2.75427Z" fill="black"/>
</svg>
