<svg width="51" height="44" viewBox="0 0 51 44" fill="none" xmlns="http://www.w3.org/2000/svg">
<path fill-rule="evenodd" clip-rule="evenodd" d="M10.9007 4.74558C7.04109 6.4796 4.21441 10.6065 4.21441 15.5272C4.21441 20.5531 6.30825 24.4283 9.30477 27.7499C11.7778 30.4859 14.7697 32.7553 17.6871 34.9651C18.3804 35.4913 19.0691 36.0151 19.7461 36.539C20.9698 37.4884 22.0609 38.3188 23.1148 38.925C24.1664 39.5289 25.0132 39.8057 25.7344 39.8057C26.4557 39.8057 27.3025 39.5312 28.3541 38.925C29.408 38.3188 30.4991 37.4884 31.7228 36.539C32.3975 36.0128 33.0885 35.4913 33.7818 34.9651C36.6992 32.7553 39.6911 30.4859 42.1641 27.7499C45.163 24.4283 47.2545 20.5531 47.2545 15.5272C47.2545 10.6088 44.4278 6.4796 40.5682 4.74558C36.8179 3.05961 31.7787 3.50569 26.9908 8.39892C26.828 8.56497 26.6328 8.69705 26.417 8.78727C26.2011 8.87748 25.969 8.92398 25.7344 8.92398C25.4999 8.92398 25.2678 8.87748 25.0519 8.78727C24.8361 8.69705 24.6409 8.56497 24.4781 8.39892C19.6902 3.50569 14.651 3.05961 10.9007 4.74558ZM25.7344 4.82794C20.3556 0.092558 14.3323 -0.570853 9.44901 1.62298C4.29816 3.94492 0.72467 9.32541 0.72467 15.5294C0.72467 21.626 3.30708 26.279 6.69677 30.0307C9.40946 33.0343 12.7294 35.5484 15.6631 37.7674C16.3284 38.2707 16.9729 38.7603 17.5848 39.2361C18.7782 40.1603 20.0578 41.144 21.3537 41.8897C22.6495 42.6332 24.1292 43.2394 25.7344 43.2394C27.3397 43.2394 28.8194 42.6332 30.1152 41.8897C31.4134 41.144 32.6907 40.1603 33.8841 39.2361C34.5214 38.7424 35.162 38.2528 35.8058 37.7674C38.7372 35.5484 42.0594 33.0321 44.7721 30.0307C48.1618 26.279 50.7442 21.626 50.7442 15.5294C50.7442 9.32541 47.1731 3.94492 42.0199 1.62755C37.1366 -0.568565 31.1133 0.0948454 25.7344 4.82794Z" fill="black"/>
</svg>
