<svg width="69" height="35" viewBox="0 0 69 35" fill="none" xmlns="http://www.w3.org/2000/svg">
<path d="M0.339844 20.707V0.544922H3.64453V20.7422C3.64453 21.75 3.73828 22.5176 3.92578 23.0449C4.11328 23.5605 4.45312 23.9121 4.94531 24.0996C5.4375 24.2754 6.14648 24.3633 7.07227 24.3633H7.65234L7.26562 27.1406H6.31641C4.95703 27.1406 3.83203 26.9824 2.94141 26.666C2.0625 26.3496 1.40625 25.7285 0.972656 24.8027C0.550781 23.877 0.339844 22.5117 0.339844 20.707ZM19.5527 27.3867C17.6895 27.3867 16.1895 27.1348 15.0527 26.6309C13.9277 26.1152 13.1074 25.4121 12.5918 24.5215C12.0879 23.6309 11.8359 22.6113 11.8359 21.4629V13.957C11.8359 12.8086 12.0879 11.7891 12.5918 10.8984C13.1074 9.99609 13.9277 9.29297 15.0527 8.78906C16.1895 8.27344 17.6895 8.01562 19.5527 8.01562C21.4043 8.01562 22.8926 8.27344 24.0176 8.78906C25.1543 9.29297 25.9805 9.99609 26.4961 10.8984C27.0117 11.7891 27.2695 12.8086 27.2695 13.957V21.4629C27.2695 22.6113 27.0117 23.6309 26.4961 24.5215C25.9805 25.4121 25.1543 26.1152 24.0176 26.6309C22.8926 27.1348 21.4043 27.3867 19.5527 27.3867ZM19.5527 24.8555C20.8418 24.8555 21.8965 24.627 22.7168 24.1699C23.5488 23.7012 23.9648 22.8926 23.9648 21.7441V13.6758C23.9648 12.5273 23.5488 11.7188 22.7168 11.25C21.8965 10.7812 20.8418 10.5469 19.5527 10.5469C18.2402 10.5469 17.1738 10.7812 16.3535 11.25C15.5449 11.7188 15.1406 12.5273 15.1406 13.6758V21.7441C15.1406 22.8926 15.5449 23.7012 16.3535 24.1699C17.1738 24.627 18.2402 24.8555 19.5527 24.8555ZM39.9434 34.1719C38.6895 34.1719 37.6113 34.1191 36.709 34.0137C35.8066 33.9082 35.0098 33.7266 34.3184 33.4688L35.0566 30.9902C35.5605 31.1777 36.2578 31.3359 37.1484 31.4648C38.0391 31.5938 38.918 31.6582 39.7852 31.6582C41.3906 31.6582 42.5449 31.3184 43.248 30.6387C43.9629 29.959 44.3203 28.9277 44.3203 27.5449V24.9609C43.9688 25.2891 43.4941 25.5527 42.8965 25.752C42.3105 25.9395 41.7129 26.0801 41.1035 26.1738C40.4941 26.2559 39.9727 26.2969 39.5391 26.2969C37.1602 26.2969 35.3848 25.7871 34.2129 24.7676C33.0527 23.748 32.4727 22.2715 32.4727 20.3379V14.2031C32.4727 12.3281 33.041 10.8281 34.1777 9.70312C35.3262 8.57812 37.1133 8.01562 39.5391 8.01562C40.1719 8.01562 40.8223 8.10938 41.4902 8.29688C42.1699 8.48438 42.7676 8.71875 43.2832 9C43.7988 9.28125 44.1445 9.56836 44.3203 9.86133V8.36719H47.625V26.5605C47.625 28.0137 47.3848 29.3145 46.9043 30.4629C46.4355 31.6113 45.6387 32.5137 44.5137 33.1699C43.4004 33.8379 41.877 34.1719 39.9434 34.1719ZM40.0488 23.7656C41.2793 23.7656 42.2344 23.584 42.9141 23.2207C43.5938 22.8574 44.0625 22.5703 44.3203 22.3594V13.1133C44.3203 12.3047 43.9688 11.6777 43.2656 11.2324C42.5742 10.7754 41.4961 10.5469 40.0312 10.5469C38.7305 10.5469 37.6934 10.8105 36.9199 11.3379C36.1582 11.8652 35.7773 12.7031 35.7773 13.8516V20.8477C35.7773 21.9609 36.1875 22.7285 37.0078 23.1504C37.8281 23.5605 38.8418 23.7656 40.0488 23.7656ZM60.9668 27.3867C59.1035 27.3867 57.6035 27.1348 56.4668 26.6309C55.3418 26.1152 54.5215 25.4121 54.0059 24.5215C53.502 23.6309 53.25 22.6113 53.25 21.4629V13.957C53.25 12.8086 53.502 11.7891 54.0059 10.8984C54.5215 9.99609 55.3418 9.29297 56.4668 8.78906C57.6035 8.27344 59.1035 8.01562 60.9668 8.01562C62.8184 8.01562 64.3066 8.27344 65.4316 8.78906C66.5684 9.29297 67.3945 9.99609 67.9102 10.8984C68.4258 11.7891 68.6836 12.8086 68.6836 13.957V21.4629C68.6836 22.6113 68.4258 23.6309 67.9102 24.5215C67.3945 25.4121 66.5684 26.1152 65.4316 26.6309C64.3066 27.1348 62.8184 27.3867 60.9668 27.3867ZM60.9668 24.8555C62.2559 24.8555 63.3105 24.627 64.1309 24.1699C64.9629 23.7012 65.3789 22.8926 65.3789 21.7441V13.6758C65.3789 12.5273 64.9629 11.7188 64.1309 11.25C63.3105 10.7812 62.2559 10.5469 60.9668 10.5469C59.6543 10.5469 58.5879 10.7812 57.7676 11.25C56.959 11.7188 56.5547 12.5273 56.5547 13.6758V21.7441C56.5547 22.8926 56.959 23.7012 57.7676 24.1699C58.5879 24.627 59.6543 24.8555 60.9668 24.8555Z" fill="#2F3542"/>
</svg>
