<svg width="32" height="32" viewBox="0 0 32 32" fill="none" xmlns="http://www.w3.org/2000/svg">
<path d="M5.86607 7.875H14.5714C15.0332 7.875 15.476 8.05279 15.8026 8.36926C16.1291 8.68572 16.3125 9.11495 16.3125 9.5625C16.3125 10.0101 16.1291 10.4393 15.8026 10.7557C15.476 11.0722 15.0332 11.25 14.5714 11.25H5.86607C5.40431 11.25 4.96146 11.0722 4.63495 10.7557C4.30843 10.4393 4.125 10.0101 4.125 9.5625C4.125 9.11495 4.30843 8.68572 4.63495 8.36926C4.96146 8.05279 5.40431 7.875 5.86607 7.875ZM18.0536 21.375H26.7589C27.2207 21.375 27.6635 21.5528 27.9901 21.8693C28.3166 22.1857 28.5 22.6149 28.5 23.0625C28.5 23.5101 28.3166 23.9393 27.9901 24.2557C27.6635 24.5722 27.2207 24.75 26.7589 24.75H18.0536C17.5918 24.75 17.149 24.5722 16.8224 24.2557C16.4959 23.9393 16.3125 23.5101 16.3125 23.0625C16.3125 22.6149 16.4959 22.1857 16.8224 21.8693C17.149 21.5528 17.5918 21.375 18.0536 21.375ZM5.86607 14.625H26.7589C27.2207 14.625 27.6635 14.8028 27.9901 15.1193C28.3166 15.4357 28.5 15.8649 28.5 16.3125C28.5 16.7601 28.3166 17.1893 27.9901 17.5057C27.6635 17.8222 27.2207 18 26.7589 18H5.86607C5.40431 18 4.96146 17.8222 4.63495 17.5057C4.30843 17.1893 4.125 16.7601 4.125 16.3125C4.125 15.8649 4.30843 15.4357 4.63495 15.1193C4.96146 14.8028 5.40431 14.625 5.86607 14.625Z" fill="#2F3542"/>
</svg>
