<svg width="50" height="50" viewBox="0 0 50 50" fill="none" xmlns="http://www.w3.org/2000/svg">
<path d="M8.78571 12H22.7143C23.4531 12 24.1617 12.2845 24.6841 12.7908C25.2065 13.2972 25.5 13.9839 25.5 14.7C25.5 15.4161 25.2065 16.1028 24.6841 16.6092C24.1617 17.1155 23.4531 17.4 22.7143 17.4H8.78571C8.0469 17.4 7.33834 17.1155 6.81592 16.6092C6.29349 16.1028 6 15.4161 6 14.7C6 13.9839 6.29349 13.2972 6.81592 12.7908C7.33834 12.2845 8.0469 12 8.78571 12ZM28.2857 33.6H42.2143C42.9531 33.6 43.6617 33.8845 44.1841 34.3908C44.7065 34.8972 45 35.5839 45 36.3C45 37.0161 44.7065 37.7028 44.1841 38.2092C43.6617 38.7155 42.9531 39 42.2143 39H28.2857C27.5469 39 26.8383 38.7155 26.3159 38.2092C25.7935 37.7028 25.5 37.0161 25.5 36.3C25.5 35.5839 25.7935 34.8972 26.3159 34.3908C26.8383 33.8845 27.5469 33.6 28.2857 33.6ZM8.78571 22.8H42.2143C42.9531 22.8 43.6617 23.0845 44.1841 23.5908C44.7065 24.0972 45 24.7839 45 25.5C45 26.2161 44.7065 26.9028 44.1841 27.4092C43.6617 27.9155 42.9531 28.2 42.2143 28.2H8.78571C8.0469 28.2 7.33834 27.9155 6.81592 27.4092C6.29349 26.9028 6 26.2161 6 25.5C6 24.7839 6.29349 24.0972 6.81592 23.5908C7.33834 23.0845 8.0469 22.8 8.78571 22.8Z" fill="#2F3542"/>
</svg>
