<svg width="35" height="40" viewBox="0 0 35 40" fill="none" xmlns="http://www.w3.org/2000/svg">
<path d="M3.5928 16.1564C3.66255 15.2913 4.05708 14.4841 4.69784 13.8956C5.33859 13.3071 6.17854 12.9804 7.05042 12.9805H27.9591C28.831 12.9804 29.6709 13.3071 30.3117 13.8956C30.9525 14.4841 31.347 15.2913 31.4167 16.1564L32.8092 33.4165C32.8474 33.8915 32.7865 34.3692 32.6303 34.8196C32.474 35.27 32.2257 35.6833 31.9011 36.0335C31.5764 36.3838 31.1825 36.6633 30.744 36.8545C30.3055 37.0457 29.832 37.1445 29.3533 37.1447H5.65627C5.17755 37.1445 4.70404 37.0457 4.26556 36.8545C3.82707 36.6633 3.43311 36.3838 3.10848 36.0335C2.78385 35.6833 2.53557 35.27 2.37929 34.8196C2.223 34.3692 2.16209 33.8915 2.20039 33.4165L3.5928 16.1564Z" stroke="#2F3542" stroke-width="4.16667" stroke-linecap="round" stroke-linejoin="round"/>
<path d="M24.4408 18.1585V9.52849C24.4408 7.69743 23.7101 5.94136 22.4093 4.6466C21.1085 3.35184 19.3443 2.62445 17.5048 2.62445C15.6652 2.62445 13.901 3.35184 12.6002 4.6466C11.2995 5.94136 10.5687 7.69743 10.5687 9.52849V18.1585" stroke="#2F3542" stroke-width="4.16667" stroke-linecap="round" stroke-linejoin="round"/>
</svg>
