<svg width="50" height="50" viewBox="0 0 50 50" fill="none" xmlns="http://www.w3.org/2000/svg">
<path d="M25 25C30.753 25 35.4167 20.3363 35.4167 14.5833C35.4167 8.83036 30.753 4.16666 25 4.16666C19.2471 4.16666 14.5834 8.83036 14.5834 14.5833C14.5834 20.3363 19.2471 25 25 25Z" stroke="#2F3542" stroke-width="4.16667"/>
<path d="M35.4167 29.1667H36.15C37.6731 29.1671 39.1436 29.7237 40.2853 30.7318C41.4269 31.74 42.1612 33.1303 42.35 34.6417L43.1646 41.15C43.2379 41.7363 43.1856 42.3315 43.0113 42.8961C42.8369 43.4606 42.5445 43.9816 42.1534 44.4246C41.7623 44.8675 41.2815 45.2221 40.7428 45.465C40.2042 45.7079 39.6201 45.8335 39.0292 45.8333H10.9709C10.38 45.8335 9.79585 45.7079 9.2572 45.465C8.71856 45.2221 8.23774 44.8675 7.84664 44.4246C7.45554 43.9816 7.16312 43.4606 6.98878 42.8961C6.81444 42.3315 6.76217 41.7363 6.83544 41.15L7.64794 34.6417C7.83689 33.1296 8.57172 31.7387 9.71426 30.7304C10.8568 29.7222 12.3283 29.1661 13.8521 29.1667H14.5834" stroke="#2F3542" stroke-width="4.16667" stroke-linecap="round" stroke-linejoin="round"/>
</svg>
