<svg width="27" height="30" viewBox="0 0 27 30" fill="none" xmlns="http://www.w3.org/2000/svg">
<path d="M13.4999 16C17.4519 16 20.6555 12.6421 20.6555 8.5C20.6555 4.35786 17.4519 1 13.4999 1C9.54802 1 6.34436 4.35786 6.34436 8.5C6.34436 12.6421 9.54802 16 13.4999 16Z" stroke="#2F3542" stroke-width="2"/>
<path d="M20.6556 17H21.1593C22.2056 17.0003 23.2157 17.401 24 18.1269C24.7842 18.8528 25.2886 19.8538 25.4183 20.942L25.9779 25.628C26.0282 26.0501 25.9923 26.4787 25.8726 26.8852C25.7528 27.2917 25.5519 27.6668 25.2833 27.9857C25.0146 28.3046 24.6843 28.56 24.3143 28.7348C23.9443 28.9097 23.543 29.0001 23.1371 29H3.86286C3.45697 29.0001 3.0557 28.9097 2.68569 28.7348C2.31567 28.56 1.98538 28.3046 1.71672 27.9857C1.44806 27.6668 1.24719 27.2917 1.12743 26.8852C1.00767 26.4787 0.97176 26.0501 1.02209 25.628L1.58023 20.942C1.71002 19.8533 2.21481 18.8519 2.99965 18.1259C3.7845 17.4 4.79534 16.9996 5.84209 17H6.34441" stroke="#2F3542" stroke-width="2" stroke-linecap="round" stroke-linejoin="round"/>
</svg>
