<svg width="43" height="42" viewBox="0 0 43 42" fill="none" xmlns="http://www.w3.org/2000/svg">
<path d="M40.1947 39.7669L27.6898 27.3197M2.68005 16.9471C2.68005 18.8541 3.05741 20.7424 3.79058 22.5043C4.52375 24.2662 5.59837 25.867 6.95308 27.2155C8.3078 28.5639 9.91608 29.6336 11.6861 30.3634C13.4561 31.0932 15.3532 31.4688 17.2691 31.4688C19.1849 31.4688 21.082 31.0932 22.8521 30.3634C24.6221 29.6336 26.2304 28.5639 27.5851 27.2155C28.9398 25.867 30.0144 24.2662 30.7476 22.5043C31.4808 20.7424 31.8581 18.8541 31.8581 16.9471C31.8581 15.0401 31.4808 13.1517 30.7476 11.3899C30.0144 9.628 28.9398 8.02713 27.5851 6.67867C26.2304 5.3302 24.6221 4.26054 22.8521 3.53075C21.082 2.80097 19.1849 2.42535 17.2691 2.42535C15.3532 2.42535 13.4561 2.80097 11.6861 3.53075C9.91608 4.26054 8.3078 5.3302 6.95308 6.67867C5.59837 8.02713 4.52375 9.628 3.79058 11.3899C3.05741 13.1517 2.68005 15.0401 2.68005 16.9471Z" stroke="#2F3542" stroke-width="4.16667" stroke-linecap="round" stroke-linejoin="round"/>
</svg>
