<svg width="29" height="29" viewBox="0 0 29 29" fill="none" xmlns="http://www.w3.org/2000/svg">
<path d="M27 27L18.6667 18.6667M2 11.7222C2 12.999 2.25147 14.2632 2.74006 15.4428C3.22865 16.6223 3.94478 17.6941 4.84757 18.5969C5.75036 19.4997 6.82213 20.2158 8.00169 20.7044C9.18124 21.193 10.4455 21.4444 11.7222 21.4444C12.999 21.4444 14.2632 21.193 15.4428 20.7044C16.6223 20.2158 17.6941 19.4997 18.5969 18.5969C19.4997 17.6941 20.2158 16.6223 20.7044 15.4428C21.193 14.2632 21.4444 12.999 21.4444 11.7222C21.4444 10.4455 21.193 9.18124 20.7044 8.00169C20.2158 6.82213 19.4997 5.75036 18.5969 4.84757C17.6941 3.94478 16.6223 3.22865 15.4428 2.74006C14.2632 2.25147 12.999 2 11.7222 2C10.4455 2 9.18124 2.25147 8.00169 2.74006C6.82213 3.22865 5.75036 3.94478 4.84757 4.84757C3.94478 5.75036 3.22865 6.82213 2.74006 8.00169C2.25147 9.18124 2 10.4455 2 11.7222Z" stroke="#2F3542" stroke-width="2.5" stroke-linecap="round" stroke-linejoin="round"/>
</svg>
