<svg width="59" height="39" viewBox="0 0 59 39" fill="none" xmlns="http://www.w3.org/2000/svg">
<path d="M58.0473 18.6577C57.9637 18.4685 55.9181 13.9933 51.35 9.48648C47.1114 5.30959 39.8289 0.327393 29.1634 0.327393C18.498 0.327393 11.2155 5.30959 6.97687 9.48648C2.40875 13.9933 0.363182 18.4612 0.279589 18.6577C0.195535 18.844 0.1521 19.0456 0.1521 19.2495C0.1521 19.4535 0.195535 19.6551 0.279589 19.8414C0.363182 20.0282 2.40875 24.5034 6.97687 29.0102C11.2155 33.1871 18.498 38.1668 29.1634 38.1668C39.8289 38.1668 47.1114 33.1871 51.35 29.0102C55.9181 24.5034 57.9637 20.0354 58.0473 19.8414C58.1313 19.6551 58.1748 19.4535 58.1748 19.2495C58.1748 19.0456 58.1313 18.844 58.0473 18.6577ZM29.1634 35.2561C21.4483 35.2561 14.7117 32.4861 9.13799 27.026C6.80151 24.7352 4.82434 22.1134 3.27173 19.2471C4.8239 16.3813 6.80112 13.7603 9.13799 11.4706C14.7117 6.00816 21.4483 3.23812 29.1634 3.23812C36.8786 3.23812 43.6152 6.00816 49.1889 11.4706C51.5258 13.7603 53.503 16.3813 55.0552 19.2471C53.489 22.2088 45.6362 35.2561 29.1634 35.2561ZM29.1634 8.08933C26.9266 8.08933 24.74 8.74372 22.8801 9.96976C21.0203 11.1958 19.5707 12.9384 18.7147 14.9772C17.8587 17.016 17.6347 19.2595 18.0711 21.4239C18.5075 23.5883 19.5846 25.5764 21.1663 27.1369C22.748 28.6973 24.7632 29.76 26.957 30.1905C29.1509 30.621 31.4249 30.4001 33.4915 29.5556C35.558 28.7111 37.3243 27.2809 38.5671 25.4461C39.8098 23.6112 40.4731 21.4539 40.4731 19.2471C40.4692 16.2891 39.2764 13.4533 37.1563 11.3616C35.0361 9.26997 32.1617 8.09318 29.1634 8.08933ZM29.1634 27.4942C27.5101 27.4942 25.8939 27.0105 24.5193 26.1043C23.1446 25.1981 22.0731 23.9101 21.4405 22.4031C20.8078 20.8962 20.6422 19.238 20.9648 17.6382C21.2873 16.0384 22.0835 14.5689 23.2525 13.4156C24.4216 12.2622 25.9111 11.4767 27.5326 11.1585C29.1542 10.8403 30.8349 11.0036 32.3624 11.6278C33.8899 12.252 35.1954 13.3091 36.1139 14.6653C37.0325 16.0215 37.5227 17.616 37.5227 19.2471C37.5227 21.4344 36.642 23.532 35.0744 25.0787C33.5067 26.6253 31.3805 27.4942 29.1634 27.4942Z" fill="#2F3542"/>
</svg>
